<svg xmlns="http://www.w3.org/2000/svg" width="122.013" height="38.04"><path fill="#fff" d="M9.67 30.11h1.65L6.85 18.42l4.31-10.97H9.73l-3.68 9.57-3.61-9.57H.79L5.1 18.67.63 30.11h1.43l3.87-10.08zm8.49-.88c-1.42 0-2.31-.64-2.94-1.94v-8.94c.69-1.71 1.9-3.23 3.32-3.23 1.84 0 2.98 2.47 2.98 6.66 0 5.04-1.33 7.45-3.36 7.45zm-.09 1.17c2.98 0 4.94-2.88 4.94-8.75 0-4.63-1.55-7.83-4.21-7.83-1.78 0-2.95 1.43-3.65 2.95l-.12-2.63h-1.3v20.92h1.49v-6.05c.6.79 1.64 1.39 2.85 1.39zm16.17.03c2.69 0 4.75-3.01 4.75-8.3 0-5.33-2.06-8.31-4.75-8.31-2.57 0-4.57 2.7-4.76 7.51h-2.12v-7.19h-1.49v15.97h1.49v-7.57h2.12c.1 5.04 2.12 7.89 4.76 7.89zm0-1.2c-1.81 0-3.3-2.28-3.3-7.1 0-4.85 1.49-7.07 3.3-7.07 1.8 0 3.23 2.22 3.23 7.07 0 4.82-1.43 7.1-3.23 7.1zm14.42.88h1.49V14.14h-1.49v7.07h-5.45v-7.07h-1.49v15.97h1.49v-7.7h5.45zm7.29-6.59c.41-3.71.51-8.18.51-8.18h4.06v13.57h-6.09c.82-.95 1.24-2.73 1.52-5.39zm6.37 9.73h1.18v-4.34h-1.46V14.14h-6.91s-.07 5.1-.48 9.03c-.32 3.01-.92 5.2-1.9 5.74h-.67v4.34h1.18l.19-3.14h8.68zm4.22-10.87h7.23c.5-5.67-1.27-8.56-4.03-8.56-2.69 0-4.66 3.08-4.66 8.31s1.55 8.3 4.95 8.3c2.53 0 3.74-1.8 3.74-1.8l-.48-1.21s-1.11 1.71-3.23 1.71c-2.32 0-3.46-2.38-3.52-6.75zm3.2-7.32c1.62 0 2.88 1.9 2.63 6.15h-5.8c.13-4 1.49-6.15 3.17-6.15zm8.72 9.51c.25-2.51.44-9.26.44-9.26h3.87v14.8h1.49V14.14H77.6s-.25 7.7-.44 10.27c-.22 2.88-.83 4.44-1.81 4.44-.51 0-.7-.1-.7-.1l.13 1.33s.29.13.63.13c2.1 0 2.67-2.03 3.05-5.64zm16.67 5.54h1.43V14.14h-1.3l-5.2 11.22c-.32.7-.63 1.39-.86 2.12h-.09c.06-.69.13-1.39.13-2.25V14.14h-1.4v15.97h1.27l5.2-11.25c.35-.7.63-1.36.85-2.06h.1c-.06.67-.13 1.36-.13 2.19zm11.95 0h1.49V14.14h-1.49v7.07h-5.45v-7.07h-1.49v15.97h1.49v-7.7h5.45zm9.1.32c2.76 0 4.88-3.1 4.88-8.4 0-5.48-2.12-8.21-4.88-8.21s-4.88 3.08-4.88 8.4c0 5.45 2.12 8.21 4.88 8.21zm0-1.2c-1.87 0-3.39-2.13-3.39-7.1 0-4.85 1.52-7.07 3.39-7.07s3.39 2.06 3.39 7.07c0 4.82-1.52 7.1-3.39 7.1z"/></svg>
